#!OML:ASF X:\für Bonn\!DataBase\2005_08_10_Bjorn_Final\c3d\bjorn.ASF
:FULLY-SPECIFIED
:DEGREES
232
root 23.5216 16.5584 -0.565187 27.9732 -62.8234 -342.353
lowerback 64.6148 -2.606 8.85016
upperback 16.9803 0.175212 0.349768
thorax -1.93092 0.00828022 -3.35773
lowerneck -4.65767 -1.93323 6.2907
upperneck -11.2419 -3.15381 -2.60836
head -2.97305 -1.86877 -1.89916
rclavicle -9.38264e-014 -2.06736e-014
rhumerus 81.0709 9.81102 -51.8663
rradius 16.0061
rwrist 35.6126
rhand -38.483 39.2763
rfingers 7.12502
rthumb -11.5051 9.61208
lclavicle -9.38264e-014 -2.06736e-014
lhumerus 63.4273 -10.4951 96.564
lradius 11.7353
lwrist -54.9222
lhand -33.0957 6.58508
lfingers 7.12502
lthumb -6.30664 36.4712
rfemur -91.6383 -20.305 18.3927
rtibia 73.6969
rfoot -21.1592 6.37124
rtoes -10.402
lfemur -90.8044 3.65062 -32.2545
ltibia 70.0266
lfoot -13.4459 -10.6388
ltoes -0.563043
233
root 23.5101 16.5655 -0.564019 27.8731 -62.7861 -342.246
lowerback 64.8144 -2.60384 8.88317
upperback 16.8979 0.228904 0.367028
thorax -2.01354 0.0293975 -3.36726
lowerneck -4.8124 -1.98354 6.30934
upperneck -11.1279 -3.22938 -2.56567
head -2.90933 -1.90839 -1.88811
rclavicle -7.15625e-014 -2.06736e-014
rhumerus 81.463 9.93654 -52.0169
rradius 15.2799
rwrist 37.3914
rhand -38.1061 38.6856
rfingers 7.12502
rthumb -11.1416 9.0014
lclavicle -7.15625e-014 -2.06736e-014
lhumerus 63.3895 -10.6255 96.7944
lradius 11.5708
lwrist -55.7287
lhand -32.4466 5.94054
lfingers 7.12502
lthumb -5.67994 35.8444
rfemur -91.5322 -20.3208 18.3097
rtibia 73.6471
rfoot -21.1811 6.33657
rtoes -10.3585
lfemur -90.6953 3.61668 -32.2842
ltibia 69.9488
lfoot -13.4505 -10.6352
ltoes -0.608638
234
root 23.4979 16.5728 -0.563459 27.7399 -62.7506 -342.106
lowerback 65.0328 -2.60486 8.92146
upperback 16.8008 0.28548 0.371834
thorax -2.11173 0.0530951 -3.39342
lowerneck -4.90649 -2.0574 6.33139
upperneck -11.0675 -3.33187 -2.49494
head -2.87583 -1.96312 -1.86763
rclavicle -4.77083e-015 4.29375e-014
rhumerus 81.8568 10.0678 -52.1471
rradius 14.5224
rwrist 39.0449
rhand -37.8511 38.0467
rfingers 7.12502
rthumb -10.8957 8.34937
lclavicle -4.77083e-015 4.29375e-014
lhumerus 63.371 -10.8266 96.9154
lradius 11.3727
lwrist -56.392
lhand -31.8917 5.3791
lfingers 7.12502
lthumb -5.14414 35.2967
rfemur -91.416 -20.347 18.2046
rtibia 73.598
rfoot -21.2227 6.32287
rtoes -10.289
lfemur -90.5779 3.57735 -32.3159
ltibia 69.8674
lfoot -13.4361 -10.6401
ltoes -0.619727
235
root 23.486 16.5812 -0.563212 27.6373 -62.7414 -341.997
lowerback 65.2365 -2.5806 8.9301
upperback 16.7245 0.345172 0.372988
thorax -2.18842 0.0776963 -3.41344
lowerneck -5.02486 -2.1188 6.37437
upperneck -11.0018 -3.41896 -2.41742
head -2.83576 -2.01111 -1.84921
rclavicle 2.8625e-014 1.74931e-014
rhumerus 82.2735 10.1819 -52.3462
rradius 13.7768
rwrist 40.8057
rhand -37.5686 37.4054
rfingers 7.12502
rthumb -10.6232 7.69393
lclavicle 2.8625e-014 1.74931e-014
lhumerus 63.334 -10.9449 97.2142
lradius 11.2005
lwrist -57.3192
lhand -31.4311 5.02679
lfingers 7.12502
lthumb -4.69937 34.9547
rfemur -91.3086 -20.3387 18.1139
rtibia 73.5464
rfoot -21.2568 6.26423
rtoes -10.4646
lfemur -90.4782 3.56483 -32.35
ltibia 69.7858
lfoot -13.4238 -10.64
ltoes -0.685875
236
root 23.4738 16.588 -0.562552 27.5041 -62.7231 -341.841
lowerback 65.4243 -2.56344 8.9476
upperback 16.6563 0.401603 0.377322
thorax -2.25559 0.101984 -3.43274
lowerneck -5.16284 -2.18675 6.43422
upperneck -10.9268 -3.51956 -2.36672
head -2.791 -2.06597 -1.84296
rclavicle 5.725e-014 -1.59028e-015
rhumerus 82.6831 10.2683 -52.5658
rradius 13.0214
rwrist 42.5772
rhand -37.2943 36.8464
rfingers 7.12502
rthumb -10.3586 7.12149
lclavicle 5.725e-014 -1.59028e-015
lhumerus 63.3609 -11.1232 97.3888
lradius 10.9772
lwrist -58.1006
lhand -31.1118 4.72372
lfingers 7.12502
lthumb -4.39105 34.6582
rfemur -91.2158 -20.3522 18.0087
rtibia 73.4904
rfoot -21.2705 6.24556
rtoes -10.3179
lfemur -90.3772 3.53462 -32.4019
ltibia 69.7004
lfoot -13.4258 -10.6451
ltoes -0.590318
237
root 23.4621 16.5965 -0.561428 27.3762 -62.6896 -341.695
lowerback 65.63 -2.57426 8.99381
upperback 16.577 0.446854 0.362354
thorax -2.33301 0.12454 -3.48034
lowerneck -5.26494 -2.25676 6.51474
upperneck -10.8965 -3.61933 -2.28626
head -2.76771 -2.12258 -1.83025
rclavicle -3.49861e-014 -1.59028e-014
rhumerus 83.069 10.338 -52.9467
rradius 12.2786
rwrist 44.4787
rhand -36.985 36.3184
rfingers 7.12502
rthumb -10.0602 6.57887
lclavicle -3.49861e-014 -1.59028e-014
lhumerus 63.3179 -11.2416 97.7311
lradius 10.8027
lwrist -59.104
lhand -30.7489 4.37531
lfingers 7.12502
lthumb -4.04067 34.3167
rfemur -91.099 -20.3772 17.9042
rtibia 73.4289
rfoot -21.2937 6.23023
rtoes -10.2637
lfemur -90.2664 3.48121 -32.4338
ltibia 69.6139
lfoot -13.4509 -10.5861
ltoes -1.00038
238
root 23.4497 16.6049 -0.5615 27.2905 -62.6812 -341.588
lowerback 65.8209 -2.52972 8.96783
upperback 16.5076 0.508559 0.385045
thorax -2.40384 0.145848 -3.46352
lowerneck -5.36551 -2.31588 6.53605
upperneck -10.8589 -3.70247 -2.20607
head -2.73962 -2.16811 -1.80734
rclavicle 3.18055e-014 -1.27222e-014
rhumerus 83.4856 10.4606 -53.2439
rradius 11.5746
rwrist 46.2533
rhand -36.6386 35.7944
rfingers 7.12502
rthumb -9.72599 6.03901
lclavicle 3.18055e-014 -1.27222e-014
lhumerus 63.3402 -11.3625 97.9259
lradius 10.6112
lwrist -59.891
lhand -30.4533 4.1242
lfingers 7.12502
lthumb -3.75517 34.0709
rfemur -91.0071 -20.3701 17.8275
rtibia 73.362
rfoot -21.3123 6.18278
rtoes -10.3978
lfemur -90.1768 3.47618 -32.471
ltibia 69.525
lfoot -13.4229 -10.6115
ltoes -0.931607
239
root 23.4377 16.6141 -0.561445 27.137 -62.6762 -341.412
lowerback 66.0321 -2.50935 8.9711
upperback 16.422 0.562838 0.370919
thorax -2.49055 0.169683 -3.49637
lowerneck -5.45398 -2.38609 6.60741
upperneck -10.8222 -3.79929 -2.10275
head -2.71559 -2.2228 -1.78548
rclavicle -4.77083e-014 1.11319e-014
rhumerus 83.8346 10.5421 -53.7152
rradius 10.8726
rwrist 48.1023
rhand -36.2379 35.3333
rfingers 7.12502
rthumb -9.33938 5.56022
lclavicle -4.77083e-014 1.11319e-014
lhumerus 63.2792 -11.4506 98.3344
lradius 10.4274
lwrist -60.9489
lhand -30.164 3.76226
lfingers 7.12502
lthumb -3.47586 33.7137
rfemur -90.9029 -20.3732 17.7068
rtibia 73.2982
rfoot -21.3504 6.12892
rtoes -10.4469
lfemur -90.06 3.4535 -32.5369
ltibia 69.4221
lfoot -13.4217 -10.6154
ltoes -0.853923
240
root 23.4258 16.6223 -0.560998 27.0142 -62.6556 -341.256
lowerback 66.2035 -2.48032 8.98404
upperback 16.3667 0.626203 0.377126
thorax -2.54252 0.197402 -3.51519
lowerneck -5.54368 -2.4569 6.74178
upperneck -10.8241 -3.90495 -2.05319
head -2.7084 -2.28446 -1.79271
rclavicle 3.18055e-014 7.63333e-014
rhumerus 84.1747 10.5809 -54.2683
rradius 10.1879
rwrist 50.0006
rhand -35.8122 34.8171
rfingers 7.12502
rthumb -8.92863 5.02606
lclavicle 3.18055e-014 7.63333e-014
lhumerus 63.2949 -11.5915 98.6275
lradius 10.2285
lwrist -61.8691
lhand -29.8672 3.45214
lfingers 7.12502
lthumb -3.18922 33.408
rfemur -90.8115 -20.3918 17.6045
rtibia 73.2297
rfoot -21.3562 6.12268
rtoes -10.3626
lfemur -89.9728 3.42634 -32.6116
ltibia 69.3258
lfoot -13.4259 -10.5843
ltoes -1.23791
241
root 23.4142 16.6319 -0.560898 26.9032 -62.6468 -341.112
lowerback 66.3831 -2.4513 8.9876
upperback 16.3012 0.684502 0.370595
thorax -2.60659 0.2231 -3.5423
lowerneck -5.62592 -2.53655 6.81347
upperneck -10.8159 -4.01364 -1.92805
head -2.69515 -2.34642 -1.76351
rclavicle -6.36111e-014 2.70347e-014
rhumerus 84.6553 10.7426 -53.8888
rradius 9.58446
rwrist 50.9085
rhand -35.3513 34.0843
rfingers 7.12502
rthumb -8.48379 4.27468
lclavicle -6.36111e-014 2.70347e-014
lhumerus 63.2946 -11.7083 98.9579
lradius 10.024
lwrist -62.785
lhand -29.7016 3.08912
lfingers 7.12502
lthumb -3.02928 33.0473
rfemur -90.7246 -20.3868 17.5004
rtibia 73.158
rfoot -21.3774 6.09741
rtoes -10.2927
lfemur -89.8786 3.40309 -32.6613
ltibia 69.22
lfoot -13.4104 -10.5749
ltoes -1.31486
242
root 23.4023 16.6396 -0.560997 26.7338 -62.6574 -340.905
lowerback 66.5716 -2.40374 8.96845
upperback 16.2288 0.750224 0.358161
thorax -2.67944 0.251751 -3.56974
lowerneck -5.65729 -2.62058 6.99312
upperneck -10.8519 -4.13422 -1.87012
head -2.71207 -2.41791 -1.77508
rclavicle 1.90833e-014 -2.70347e-014
rhumerus 85.1105 10.8798 -53.5189
rradius 8.94894
rwrist 51.7674
rhand -34.9194 33.5534
rfingers 7.12502
rthumb -8.06701 3.72732
lclavicle 1.90833e-014 -2.70347e-014
lhumerus 63.3346 -11.9989 98.9825
lradius 9.84273
lwrist -63.4214
lhand -29.578 2.68957
lfingers 7.12502
lthumb -2.90995 32.6495
rfemur -90.6442 -20.396 17.3822
rtibia 73.0901
rfoot -21.3916 6.0488
rtoes -10.4749
lfemur -89.7888 3.40038 -32.7772
ltibia 69.1163
lfoot -13.3965 -10.582
ltoes -1.47629
243
root 23.3909 16.6491 -0.560728 26.6337 -62.6509 -340.764
lowerback 66.7422 -2.36933 8.99489
upperback 16.1535 0.826687 0.337473
thorax -2.75188 0.287936 -3.62968
lowerneck -5.70534 -2.7116 7.19714
upperneck -10.8497 -4.26264 -1.77571
head -2.71334 -2.49404 -1.77905
rclavicle -1.01778e-013 1.27222e-014
rhumerus 85.495 11.0143 -53.1685
rradius 8.40707
rwrist 52.6866
rhand -34.4728 32.8587
rfingers 7.12502
rthumb -7.63597 3.0166
lclavicle -1.01778e-013 1.27222e-014
lhumerus 63.3702 -12.3255 99.0009
lradius 9.63943
lwrist -64.0124
lhand -29.5589 2.3123
lfingers 7.12502
lthumb -2.89146 32.2724
rfemur -90.555 -20.3943 17.2804
rtibia 73.0052
rfoot -21.3897 6.03557
rtoes -10.3896
lfemur -89.7033 3.38704 -32.8486
ltibia 69.0098
lfoot -13.3701 -10.5792
ltoes -1.56764
244
root 23.3795 16.658 -0.560556 26.5655 -62.6382 -340.652
lowerback 66.8959 -2.32689 9.02324
upperback 16.0936 0.910445 0.332957
thorax -2.8067 0.326139 -3.67564
lowerneck -5.77508 -2.80076 7.39462
upperneck -10.842 -4.39364 -1.71686
head -2.71014 -2.57054 -1.794
rclavicle 4.45278e-014 -3.33958e-014
rhumerus 85.9047 11.1265 -52.7744
rradius 7.87099
rwrist 53.6274
rhand -34.0327 32.1264
rfingers 7.12502
rthumb -7.21108 2.26927
lclavicle 4.45278e-014 -3.33958e-014
lhumerus 63.4254 -12.6313 99.024
lradius 9.45446
lwrist -64.5971
lhand -29.4893 1.93249
lfingers 7.12502
lthumb -2.82424 31.8935
rfemur -90.4955 -20.4056 17.2297
rtibia 72.9302
rfoot -21.3978 5.98363
rtoes -10.5222
lfemur -89.6364 3.36456 -32.8902
ltibia 68.9048
lfoot -13.3759 -10.5539
ltoes -1.76351
